<?xml version="1.0" encoding="UTF-8"?>
<svg id="Layer_2" data-name="Layer 2" xmlns="http://www.w3.org/2000/svg" viewBox="0 0 221.49 221.51">
  <defs>
    <style>
      .cls-1 {
        fill: #fff;
      }
    </style>
  </defs>
  <g id="Layer_1-2" data-name="Layer 1">
    <g>
      <path class="cls-1" d="M110.76,0C49.58,0,0,49.58,0,110.76s49.58,110.76,110.76,110.76,110.74-49.58,110.74-110.76S171.91,0,110.76,0ZM115.61,184.37L47.7,116.46v29.1h-19.42v-77.61h77.61v19.4l-29.1,29.11,38.81,38.8v29.11ZM193.21,145.55h-77.61v-19.4h77.61v19.4ZM193.21,116.46h-77.61v-19.42h77.61v19.42ZM115.61,87.34v-19.4h77.61v19.4h-77.61Z"/>
      <polygon class="cls-1" points="76.79 87.34 47.7 116.46 47.7 87.34 76.79 87.34"/>
    </g>
  </g>
</svg>